HIERARCHY
ROOT Hips
{
 OFFSET 0.000000 0.000000 0.000000
 CHANNELS 6 Xposition Yposition Zposition Yrotation Xrotation Zrotation
 JOINT Chest
 {
  OFFSET 0.000000 9.585900 0.002600
  CHANNELS 3 Yrotation Xrotation Zrotation
  JOINT Chest2
  {
   OFFSET 0.000000 9.601200 -0.005300
   CHANNELS 3 Yrotation Xrotation Zrotation
   JOINT Chest3
   {
    OFFSET 0.000000 9.561800 0.000000
    CHANNELS 3 Yrotation Xrotation Zrotation
    JOINT Chest4
    {
     OFFSET 0.000000 9.552100 0.000000
     CHANNELS 3 Yrotation Xrotation Zrotation
     JOINT Neck
     {
      OFFSET 0.000000 14.453000 0.000000
      CHANNELS 3 Yrotation Xrotation Zrotation
      JOINT Head
      {
       OFFSET 0.000000 8.936500 -0.011300
       CHANNELS 3 Yrotation Xrotation Zrotation
       End Site
       {
        OFFSET 0.000000 17.073600 -0.006000
       }
      }
     }
     JOINT RightCollar
     {
      OFFSET -2.921100 9.558500 0.000000
      CHANNELS 3 Yrotation Xrotation Zrotation
      JOINT RightShoulder
      {
       OFFSET -13.519700 0.000000 0.000000
       CHANNELS 3 Yrotation Xrotation Zrotation
       JOINT RightElbow
       {
        OFFSET 0.000000 -29.696600 0.000000
        CHANNELS 3 Yrotation Xrotation Zrotation
        JOINT RightWrist
        {
         OFFSET 0.000000 -24.004700 0.000000
         CHANNELS 3 Yrotation Xrotation Zrotation
         End Site
         {
          OFFSET 0.000000 -17.728500 0.000000
         }
        }
       }
      }
     }
     JOINT LeftCollar
     {
      OFFSET 2.921100 9.558500 0.000000
      CHANNELS 3 Yrotation Xrotation Zrotation
      JOINT LeftShoulder
      {
       OFFSET 13.519700 0.000000 0.000000
       CHANNELS 3 Yrotation Xrotation Zrotation
       JOINT LeftElbow
       {
        OFFSET 0.000000 -29.696600 0.000000
        CHANNELS 3 Yrotation Xrotation Zrotation
        JOINT LeftWrist
        {
         OFFSET 0.000000 -24.004700 0.000000
         CHANNELS 3 Yrotation Xrotation Zrotation
         End Site
         {
          OFFSET 0.000000 -17.728500 0.000000
         }
        }
       }
      }
     }
    }
   }
  }
 }
 JOINT RightHip
 {
  OFFSET -7.771700 -0.012900 -0.001300
  CHANNELS 3 Yrotation Xrotation Zrotation
  JOINT RightKnee
  {
   OFFSET 0.000000 -40.869800 0.001200
   CHANNELS 3 Yrotation Xrotation Zrotation
   JOINT RightAnkle
   {
    OFFSET 0.000000 -39.717900 0.002100
    CHANNELS 3 Yrotation Xrotation Zrotation
    JOINT RightToe
    {
     OFFSET 0.000000 -4.965400 11.033500
     CHANNELS 3 Yrotation Xrotation Zrotation
     End Site
     {
      OFFSET 0.000000 -1.423100 5.872300
     }
    }
   }
  }
 }
 JOINT LeftHip
 {
  OFFSET 7.771700 -0.012900 -0.001300
  CHANNELS 3 Yrotation Xrotation Zrotation
  JOINT LeftKnee
  {
   OFFSET 0.000000 -40.869800 0.001200
   CHANNELS 3 Yrotation Xrotation Zrotation
   JOINT LeftAnkle
   {
    OFFSET 0.000000 -39.717900 0.002100
    CHANNELS 3 Yrotation Xrotation Zrotation
    JOINT LeftToe
    {
     OFFSET 0.000000 -4.965400 11.033500
     CHANNELS 3 Yrotation Xrotation Zrotation
     End Site
     {
      OFFSET 0.000000 -1.423100 5.872300
     }
    }
   }
  }
 }
}
MOTION
Frames: 15
Frame Time: 0.008333
-61.058005 61.994169 15.296593 174.660091 -53.570896 -0.661591 4.414253 27.736216 2.475628 0.650508 4.983428 0.308966 1.061422 7.852125 0.498822 3.380265 22.461250 1.883388 2.507674 16.043728 2.958095 3.645632 -6.035246 4.545495 6.446924 6.566079 5.375898 -7.732776 -19.231100 -9.600744 -63.147217 -24.055237 99.186505 -16.993432 -6.863883 -16.277595 -11.510618 0.777080 -1.894784 -6.085849 -18.160754 16.056984 37.096670 -21.524711 -74.408357 25.475447 -7.251937 29.286393 0.451309 -13.696056 -2.726268 -6.733685 63.573658 -9.718885 1.250787 -7.523236 7.241765 0.022665 -0.131180 0.017716 -3.736417 -11.297213 5.044970 27.292315 74.682585 29.481779 1.043322 -9.205010 -5.903136 0.017393 0.119903 0.005478
-61.060260 61.995423 15.296115 174.660168 -53.579019 -0.658475 4.380264 27.745622 2.478010 0.661146 4.985054 0.299750 1.056746 7.855269 0.499953 3.367839 22.466170 1.882766 2.517904 16.042092 2.951456 3.664815 -6.035830 4.524182 6.454198 6.563182 5.360058 -7.633656 -19.205494 -9.609690 -62.759617 -24.000907 98.896409 -16.951393 -6.613603 -16.549842 -11.499389 0.772861 -1.912912 -6.107196 -18.118091 16.069818 37.210992 -21.642087 -74.478086 25.373271 -7.260734 29.282002 0.455022 -13.687834 -2.728980 -6.742338 63.576018 -9.727245 1.253522 -7.522778 7.242454 0.023481 -0.132341 0.017825 -3.735853 -11.287700 5.040466 27.288937 74.676503 29.479542 1.039726 -9.196806 -5.907168 0.023153 0.116674 0.008926
-61.062048 61.995847 15.296443 174.653215 -53.581614 -0.654353 4.372146 27.747607 2.481690 0.653556 4.988765 0.303790 1.063314 7.855060 0.493392 3.318259 22.483021 1.914416 2.546334 16.032563 2.909247 3.677107 -6.038128 4.499590 6.486810 6.553957 5.307530 -7.549250 -19.184613 -9.629596 -62.349282 -23.901857 98.612560 -16.922141 -6.395078 -16.825666 -11.502362 0.782728 -1.935032 -6.132650 -18.055561 16.065344 37.400301 -21.818464 -74.577580 25.282025 -7.276253 29.307055 0.464912 -13.686073 -2.722831 -6.739596 63.575707 -9.730770 1.247083 -7.517126 7.251250 0.023253 -0.134850 0.015980 -3.736152 -11.283415 5.042224 27.295242 74.677201 29.480341 1.041204 -9.200610 -5.907854 0.023854 0.119113 0.010801
-61.064965 61.996341 15.296783 174.653660 -53.585237 -0.650716 4.349313 27.754650 2.479701 0.650216 4.992046 0.304539 1.071219 7.852882 0.485850 3.293278 22.496381 1.926851 2.560710 16.025114 2.898177 3.703294 -6.049556 4.473541 6.493551 6.540992 5.295005 -7.476764 -19.171499 -9.673648 -61.909907 -23.750676 98.334657 -16.894336 -6.205117 -17.095169 -11.516694 0.798259 -1.925439 -6.125713 -18.043656 16.040955 37.527472 -21.985950 -74.658696 25.193199 -7.299016 29.346612 0.466296 -13.682097 -2.726386 -6.734856 63.575967 -9.729337 1.245421 -7.516959 7.254442 0.023316 -0.134695 0.015193 -3.746862 -11.278287 5.035799 27.299858 74.674067 29.473933 1.049076 -9.198228 -5.906258 0.020096 0.120478 0.009552
-61.067474 61.997549 15.296856 174.647390 -53.594555 -0.644929 4.326863 27.769024 2.482396 0.661624 4.991418 0.295877 1.055805 7.861710 0.495315 3.278695 22.501728 1.926422 2.577066 16.014775 2.874957 3.754292 -6.075974 4.464666 6.492109 6.524844 5.293474 -7.390663 -19.158001 -9.741609 -61.469233 -23.556402 98.061405 -16.861325 -6.043370 -17.350548 -11.531309 0.814817 -1.913253 -6.114250 -18.033373 16.014186 37.657424 -22.172576 -74.748797 25.093776 -7.318605 29.375412 0.471159 -13.670662 -2.724198 -6.733192 63.571551 -9.733302 1.244294 -7.514610 7.260591 0.022139 -0.133979 0.013447 -3.747379 -11.267569 5.033036 27.302928 74.671647 29.471236 1.051901 -9.195543 -5.904133 0.019742 0.118363 0.009443
-61.069935 61.998581 15.297299 174.646265 -53.602771 -0.644410 4.317887 27.779071 2.484486 0.659565 4.993041 0.295985 1.041344 7.869237 0.503457 3.267494 22.508777 1.928427 2.591035 16.003393 2.852701 3.769622 -6.084981 4.453855 6.509909 6.512082 5.266135 -7.324775 -19.148496 -9.788535 -61.033475 -23.333931 97.789539 -16.828739 -5.912392 -17.587923 -11.574532 0.854419 -1.863057 -6.061413 -18.052566 15.951295 37.794362 -22.376213 -74.842615 24.966912 -7.322962 29.366791 0.476126 -13.658361 -2.721635 -6.747501 63.565364 -9.748234 1.246492 -7.517507 7.266532 0.022400 -0.128431 0.011931 -3.750012 -11.257406 5.032073 27.291072 74.671419 29.454954 1.056017 -9.196689 -5.899460 0.020228 0.119427 0.007126
-61.072061 61.998792 15.298640 174.643567 -53.604882 -0.645379 4.311568 27.782829 2.489759 0.648475 4.997312 0.303069 1.026899 7.880054 0.512377 3.264486 22.515352 1.920681 2.600458 15.986832 2.845252 3.786520 -6.093699 4.430018 6.524676 6.495068 5.238478 -7.244694 -19.142292 -9.845759 -60.604920 -23.098290 97.516106 -16.804441 -5.810404 -17.804011 -11.585133 0.849661 -1.854897 -6.053274 -18.027814 15.930016 37.934642 -22.598629 -74.932113 24.800811 -7.309083 29.298936 0.481109 -13.654135 -2.716753 -6.752630 63.558997 -9.753495 1.244825 -7.515356 7.270152 0.024137 -0.125379 0.011743 -3.750631 -11.253827 5.034476 27.285312 74.669432 29.446396 1.058762 -9.198872 -5.898236 0.018319 0.122188 0.007872
-61.074176 62.000083 15.299408 174.638860 -53.615079 -0.644296 4.279917 27.801895 2.500198 0.661159 4.996732 0.291542 1.032951 7.880213 0.506294 3.253191 22.535478 1.935127 2.609059 15.969471 2.839989 3.845207 -6.138453 4.434790 6.543894 6.452895 5.236208 -7.148980 -19.120310 -9.941325 -60.189614 -22.854561 97.243551 -16.788496 -5.732410 -18.002653 -11.598709 0.834108 -1.846372 -6.037042 -18.010196 15.906592 38.064078 -22.837587 -75.006192 24.588964 -7.274949 29.166313 0.487424 -13.642627 -2.714891 -6.750629 63.557590 -9.749649 1.245427 -7.517390 7.273536 0.024055 -0.123396 0.010215 -3.750271 -11.241711 5.034619 27.290470 74.665467 29.451485 1.054941 -9.198928 -5.898723 0.020597 0.122168 0.007750
-61.076489 62.001413 15.300382 174.611825 -53.625056 -0.623473 4.279929 27.819083 2.505681 0.659216 5.000617 0.294034 1.031135 7.888558 0.508180 3.248729 22.539819 1.930358 2.622598 15.958926 2.847354 3.872665 -6.170922 4.429044 6.561463 6.424661 5.224294 -7.039752 -19.102340 -10.024838 -59.796444 -22.604088 96.980501 -16.782573 -5.667622 -18.198580 -11.614962 0.822605 -1.831003 -6.007334 -18.015532 15.876861 38.174747 -23.087214 -75.060810 24.330412 -7.217003 28.978449 0.506508 -13.630606 -2.712287 -6.755797 63.548778 -9.759505 1.248063 -7.516430 7.282064 0.019241 -0.118693 0.008533 -3.734561 -11.231022 5.031716 27.306795 74.660484 29.470406 1.047934 -9.192687 -5.901836 0.023661 0.116475 0.009293
-61.078231 62.001976 15.302186 174.598428 -53.628525 -0.616230 4.275384 27.831793 2.513976 0.655084 5.003638 0.295550 1.028919 7.897221 0.509454 3.253519 22.528120 1.915490 2.631721 15.961990 2.870825 3.906181 -6.207383 4.427484 6.578713 6.407698 5.233663 -6.908786 -19.079620 -10.120572 -59.430737 -22.350028 96.729790 -16.791483 -5.606212 -18.402918 -11.634827 0.829488 -1.804028 -6.033227 -17.952063 15.878265 38.383999 -23.390353 -75.169681 24.040054 -7.137880 28.752888 0.515643 -13.624973 -2.710316 -6.748263 63.542064 -9.749740 1.246908 -7.519501 7.281327 0.018559 -0.112240 0.009117 -3.729249 -11.226234 5.029533 27.336233 74.651901 29.502983 1.042580 -9.188904 -5.904684 0.024830 0.115447 0.007719
-61.079438 62.002527 15.304225 174.585527 -53.630731 -0.610843 4.273879 27.844229 2.524943 0.651984 5.008504 0.296359 1.020255 7.920957 0.522907 3.248507 22.523233 1.904184 2.648284 15.942346 2.873295 3.927716 -6.239522 4.420913 6.603756 6.369772 5.220114 -6.757484 -19.051786 -10.223473 -59.090925 -22.092244 96.488043 -16.808987 -5.542968 -18.613261 -11.633865 0.802017 -1.808725 -6.062753 -17.907552 15.890258 38.576580 -23.692740 -75.275956 23.743935 -7.045897 28.511864 0.522749 -13.622255 -2.706175 -6.745531 63.536532 -9.744723 1.246443 -7.516700 7.279195 0.019168 -0.114591 0.009460 -3.725567 -11.222215 5.030262 27.358038 74.645523 29.524949 1.044027 -9.188244 -5.906541 0.024740 0.116123 0.006995
-61.080543 62.003318 15.306206 174.575994 -53.633267 -0.606345 4.270816 27.856728 2.534610 0.650020 5.013973 0.297727 1.018153 7.931258 0.528802 3.239839 22.552369 1.928780 2.660427 15.898328 2.849719 3.925688 -6.252588 4.399046 6.614179 6.320829 5.165664 -6.584260 -19.020239 -10.319928 -58.771649 -21.831852 96.259042 -16.828583 -5.477463 -18.822424 -11.632999 0.749912 -1.835434 -6.069033 -17.898783 15.888317 38.732918 -23.998063 -75.376326 23.461604 -6.941149 28.274382 0.528330 -13.616914 -2.705620 -6.742353 63.529771 -9.738051 1.248887 -7.519811 7.277588 0.015575 -0.110565 0.008328 -3.723202 -11.219407 5.029395 27.381915 74.641283 29.549805 1.044588 -9.185711 -5.911257 0.024520 0.114424 0.008566
-61.081497 62.004197 15.308184 174.575004 -53.634796 -0.606773 4.264376 27.865433 2.540656 0.638745 5.034021 0.313812 1.024488 7.923785 0.517660 3.237357 22.559020 1.934352 2.703387 15.878099 2.896908 3.976156 -6.325077 4.409449 6.644615 6.284509 5.157068 -6.430597 -18.973874 -10.434069 -58.460084 -21.569726 96.047690 -16.850842 -5.413802 -19.023244 -11.646119 0.740014 -1.825811 -6.066404 -17.902001 15.871980 38.898090 -24.317583 -75.499977 23.206561 -6.821195 28.056653 0.526514 -13.612159 -2.707079 -6.727984 63.524827 -9.721769 1.244876 -7.525322 7.272713 0.016209 -0.105971 0.008869 -3.726095 -11.217236 5.026832 27.353097 74.640693 29.526975 1.051203 -9.181127 -5.917096 0.028079 0.113001 0.009155
-61.082341 62.005365 15.309929 174.569940 -53.636892 -0.601324 4.264119 27.869950 2.540807 0.633314 5.044997 0.323570 1.024257 7.928849 0.520264 3.234808 22.553879 1.927332 2.723204 15.864784 2.912364 4.040482 -6.384989 4.440454 6.708300 6.250016 5.174881 -6.314582 -18.920484 -10.555045 -58.147667 -21.308742 95.851113 -16.876508 -5.352238 -19.209215 -11.679843 0.760608 -1.789145 -6.064891 -17.907937 15.855010 39.106189 -24.650439 -75.672928 23.000759 -6.689585 27.875679 0.529937 -13.608812 -2.709411 -6.713998 63.523895 -9.705529 1.237771 -7.529623 7.265703 0.017787 -0.102530 0.012412 -3.724823 -11.214615 5.021409 27.361096 74.637521 29.535320 1.054681 -9.178580 -5.914087 0.024194 0.111726 0.005528
-61.082249 62.006637 15.311591 174.553793 -53.638365 -0.589271 4.264614 27.881619 2.546675 0.638235 5.041781 0.320848 1.022756 7.939525 0.530960 3.230950 22.548648 1.919758 2.727525 15.853278 2.908135 4.113735 -6.445066 4.478935 6.716498 6.237187 5.164551 -6.147310 -18.876437 -10.647284 -57.844247 -21.056943 95.669454 -16.904257 -5.291425 -19.381681 -11.693965 0.764126 -1.779022 -6.080886 -17.897919 15.865858 39.317684 -24.989877 -75.896629 22.856820 -6.550368 27.738621 0.538801 -13.606328 -2.708397 -6.703482 63.522017 -9.692946 1.231259 -7.534559 7.257523 0.019502 -0.097655 0.016909 -3.720190 -11.208635 5.021947 27.349866 74.630978 29.521423 1.055905 -9.175860 -5.911050 0.023867 0.112571 0.002290
